<?xml version="1.0" standalone="no"?>
<!DOCTYPE svg PUBLIC "-//W3C//DTD SVG 20010904//EN"
 "http://www.w3.org/TR/2001/REC-SVG-20010904/DTD/svg10.dtd">
<svg version="1.0" xmlns="http://www.w3.org/2000/svg"
 width="32.000000pt" height="32.000000pt" viewBox="0 0 32.000000 32.000000"
 preserveAspectRatio="xMidYMid meet">

<g transform="translate(0.000000,32.000000) scale(0.100000,-0.100000)"
fill="#000000" stroke="none">
<path d="M12 308 c-17 -17 -17 -279 0 -296 17 -17 279 -17 296 0 17 17 17 279
0 296 -17 17 -279 17 -296 0z m173 -69 c5 -15 10 -17 25 -9 10 5 26 7 36 3 14
-5 16 -16 11 -75 -3 -37 -3 -68 0 -68 4 0 15 7 25 17 17 15 18 15 18 0 0 -21
-43 -50 -67 -45 -20 4 -21 23 -8 96 6 36 5 41 -8 36 -19 -7 -47 -64 -47 -97 0
-13 -7 -30 -15 -37 -25 -21 -29 12 -10 86 12 50 14 69 5 78 -25 24 -76 -80
-64 -130 4 -16 0 -26 -15 -34 -30 -16 -36 5 -22 83 15 86 15 90 -10 84 -15 -4
-19 -1 -17 11 4 20 57 29 68 11 6 -9 13 -8 30 4 26 18 57 12 65 -14z"/>
</g>
</svg>
